<svg preserveAspectRatio="none" width="100%" height="100%" overflow="visible" style="display: block;" viewBox="0 0 158.26 93.52" fill="none" xmlns="http://www.w3.org/2000/svg">
<g id="icon magenta" clip-path="url(#clip0_0_4)">
<g id="Vector">
<path d="M132.77 0L115.87 50.01H115.86V65.31H133.97L158.26 0H132.77Z" fill="var(--fill-0, #C42BAB)" style="fill:#C42BAB;fill:color(display-p3 0.7686 0.1686 0.6706);fill-opacity:1;"/>
<path d="M74.57 0H52.8V21.77H74.57V0Z" fill="var(--fill-0, #C42BAB)" style="fill:#C42BAB;fill:color(display-p3 0.7686 0.1686 0.6706);fill-opacity:1;"/>
<path d="M96.34 21.77H74.57V43.54H96.34V21.77Z" fill="var(--fill-0, #C42BAB)" style="fill:#C42BAB;fill:color(display-p3 0.7686 0.1686 0.6706);fill-opacity:1;"/>
<path d="M118.11 43.54H96.34V65.31H118.11V43.54Z" fill="var(--fill-0, #C42BAB)" style="fill:#C42BAB;fill:color(display-p3 0.7686 0.1686 0.6706);fill-opacity:1;"/>
<path d="M32.67 65.42L23.49 87.53C22.45 90.03 20.01 91.66 17.3 91.66C14.62 91.66 12.18 90.06 11.14 87.59C1.93 65.75 70.34 34.41 71.34 0H39.01C39.01 38.34 15.23 57.05 0 93.52H74.55V65.41H32.67V65.42Z" fill="var(--fill-0, #C42BAB)" style="fill:#C42BAB;fill:color(display-p3 0.7686 0.1686 0.6706);fill-opacity:1;"/>
</g>
</g>
<defs>
<clipPath id="clip0_0_4">
<rect width="158.26" height="93.52" fill="white" style="fill:white;fill-opacity:1;"/>
</clipPath>
</defs>
</svg>
