<svg width="75" height="75" viewBox="0 0 75 75" fill="none" xmlns="http://www.w3.org/2000/svg">
<path d="M65.9922 45.3549V57.9492C64.8751 59.4937 63.6365 60.946 62.2911 62.2914C60.4989 64.0836 58.5221 65.6816 56.3801 67.061C56.2393 67.1532 56.0936 67.2455 55.9527 67.333H18.2039C15.3674 65.5601 12.798 63.3988 10.5735 60.9265C21.3027 38.6716 35.3541 24.5911 37.8214 1.43274C45.583 1.59302 52.7374 4.23039 58.5221 8.58715C45.2721 29.759 10.5152 48.7111 16.4068 62.6896C16.8147 63.6562 17.4947 64.4527 18.335 65.0064C19.1753 65.5601 20.1807 65.871 21.2249 65.871C23.3426 65.871 25.2514 64.5985 26.0625 62.6411L33.2412 45.3549H65.9971H65.9922Z" fill="white" style="fill:white;fill-opacity:1;"/>
<path d="M37.083 0C37.3171 0 37.583 0.00082091 37.8496 0.0107422L37.8506 0.00976562C45.9217 0.17644 53.3646 2.92013 59.3809 7.45117L59.8984 7.84766C61.097 8.78396 62.232 9.79112 63.3037 10.8584L63.3057 10.8604C70.0126 17.5673 74.1669 26.844 74.167 37.083V38.5107H74.1348C73.8484 46.0648 71.2993 53.0477 67.1494 58.79V58.791C65.9877 60.3972 64.6996 61.9069 63.3008 63.3057C61.4372 65.1692 59.3813 66.8318 57.1533 68.2666L57.1523 68.2656C57.0026 68.3636 56.8509 68.4609 56.7061 68.5508L56.7051 68.5498C51.0114 72.1104 44.2826 74.167 37.0781 74.167C29.8747 74.1669 23.4172 72.1892 17.8018 68.7656V68.7666C17.7416 68.73 17.6804 68.692 17.624 68.6572C17.5665 68.6217 17.5133 68.5889 17.4619 68.5576L17.4541 68.5527L17.4473 68.5488C14.4973 66.7051 11.825 64.4575 9.51172 61.8867C3.59726 55.3156 0 46.6191 0 37.083C5.57149e-05 26.8438 4.15402 17.5728 10.8604 10.8613V10.8604C17.5673 4.15338 26.844 5.57124e-05 37.083 0ZM2.85547 37.083C2.85547 45.8868 6.17426 53.9088 11.6348 59.9756V59.9766C13.7693 62.3488 16.2349 64.4227 18.9561 66.124C19.013 66.1587 19.0707 66.1937 19.124 66.2266C19.1817 66.2622 19.2346 66.2958 19.2861 66.3271H19.2871C24.4734 69.4893 30.4201 71.3105 37.0781 71.3105C43.7338 71.3105 49.9421 69.4131 55.1953 66.127L55.2002 66.124C55.3337 66.0412 55.4691 65.9553 55.5977 65.8711L55.6074 65.8652C57.6632 64.5413 59.5604 63.007 61.2812 61.2861C62.5732 59.9942 63.7625 58.6 64.835 57.1172L65.2119 56.5859C69.0532 51.0524 71.3057 44.3296 71.3057 37.083V36.6816C71.1988 27.3905 67.3925 18.9871 61.2881 12.8818C60.2945 11.8924 59.2453 10.9616 58.1406 10.0986L57.6631 9.73242C52.1099 5.55008 45.2439 3.01912 37.792 2.86523H37.7783L37.7646 2.86426C37.5552 2.85588 37.3359 2.85547 37.083 2.85547C27.632 2.85552 19.0731 6.68598 12.8799 12.8789C6.68608 19.0774 2.85552 27.6321 2.85547 37.083Z" fill="white" style="fill:white;fill-opacity:1;"/>
<path d="M51.5183 22.2159L42.5619 48.7208H42.5571V56.8272H52.1546L65.0257 22.2159H51.5183Z" fill="black" style="fill:black;fill-opacity:1;"/>
<path d="M20.6761 22.2159H9.13577V33.7563H20.6761V22.2159Z" fill="black" style="fill:black;fill-opacity:1;"/>
<path d="M32.2116 33.7512H20.6712V45.2915H32.2116V33.7512Z" fill="black" style="fill:black;fill-opacity:1;"/>
<path d="M43.7519 45.2915H32.2116V56.8318H43.7519V45.2915Z" fill="black" style="fill:black;fill-opacity:1;"/>
<path d="M56.385 67.0657C50.8237 70.655 44.1939 72.7387 37.0832 72.7387C29.9725 72.7387 23.9498 70.8396 18.5487 67.5465V67.0657H56.3899H56.385Z" fill="white" style="fill:white;fill-opacity:1;"/>
</svg>
