<svg width="1440" height="558" viewBox="0 0 1440 558" fill="none" xmlns="http://www.w3.org/2000/svg">
<rect width="1584" height="576" transform="translate(-30 -18)" fill="#C42BAB" style="fill:#C42BAB;fill:color(display-p3 0.7686 0.1686 0.6706);fill-opacity:1;"/>
<path d="M1206.92 362.586C1202.75 362.586 1199.28 361.37 1196.5 358.939C1194.07 356.16 1192.85 352.687 1192.85 348.519V279.227H1221.5V362.586H1206.92ZM1417.4 279.227H1445.53V348.519C1445.53 352.687 1444.14 356.16 1441.36 358.939C1438.93 361.37 1435.63 362.586 1431.46 362.586H1417.4V279.227ZM1235.05 362.586C1239.22 362.586 1242.52 363.975 1244.95 366.754C1247.73 369.185 1249.12 372.485 1249.12 376.652V418.853H1235.57C1231.4 418.853 1227.93 417.637 1225.15 415.206C1222.72 412.427 1221.5 408.954 1221.5 404.786V362.586H1235.05ZM1389.79 376.652C1389.79 372.485 1391 369.185 1393.43 366.754C1396.21 363.975 1399.68 362.586 1403.85 362.586H1417.4V404.786C1417.4 408.954 1416.01 412.427 1413.23 415.206C1410.8 417.637 1407.5 418.853 1403.33 418.853H1389.79V376.652ZM1263.18 418.853C1267.35 418.853 1270.65 420.242 1273.08 423.021C1275.86 425.452 1277.25 428.752 1277.25 432.92V503.254H1263.18C1259.02 503.254 1255.54 502.038 1252.76 499.607C1250.33 496.828 1249.12 493.355 1249.12 489.187V418.853H1263.18ZM1361.65 432.92C1361.65 428.752 1362.87 425.452 1365.3 423.021C1368.08 420.242 1371.55 418.853 1375.72 418.853H1389.79V489.187C1389.79 493.355 1388.4 496.828 1385.62 499.607C1383.19 502.038 1379.89 503.254 1375.72 503.254H1361.65V432.92ZM1290.8 503.254C1294.96 503.254 1298.26 504.643 1300.7 507.422C1303.47 509.853 1304.86 513.153 1304.86 517.321V559H1291.32C1287.15 559 1283.68 557.784 1280.9 555.353C1278.47 552.574 1277.25 549.101 1277.25 544.933V503.254H1290.8ZM1333 517.321C1333 513.153 1334.21 509.853 1336.64 507.422C1339.42 504.643 1342.9 503.254 1347.06 503.254H1361.65V544.933C1361.65 549.101 1360.26 552.574 1357.48 555.353C1355.05 557.784 1351.75 559 1347.58 559H1333V517.321ZM1333 601.721C1333 605.889 1331.61 609.189 1328.83 611.62C1326.4 614.399 1323.1 615.788 1318.93 615.788H1304.86V559H1333V601.721ZM1206.92 643.401C1202.75 643.401 1199.28 642.012 1196.5 639.233C1194.07 636.802 1192.85 633.502 1192.85 629.334V615.788H1221.5V643.401H1206.92ZM1304.86 629.334C1304.86 633.502 1303.47 636.802 1300.7 639.233C1298.26 642.012 1294.96 643.401 1290.8 643.401H1277.25V629.855C1277.25 625.687 1278.47 622.214 1280.9 619.435C1283.68 617.004 1287.15 615.788 1291.32 615.788H1304.86V629.334ZM1235.57 671.535C1231.4 671.535 1227.93 670.145 1225.15 667.367C1222.72 664.935 1221.5 661.636 1221.5 657.468V643.401H1277.25V657.468C1277.25 661.636 1275.86 664.935 1273.08 667.367C1270.65 670.145 1267.35 671.535 1263.18 671.535H1235.57Z" fill="black" style="fill:black;fill-opacity:1;"/>
<path d="M1072.17 320.385C1072.17 324.553 1070.78 328.026 1068 330.805C1065.57 333.236 1062.27 334.452 1058.11 334.452H1044.04V222.438H1072.17V320.385ZM1072.17 348.519C1072.17 344.351 1073.39 341.051 1075.82 338.62C1078.6 335.841 1082.07 334.452 1086.24 334.452H1156.57V362.586H1072.17V348.519ZM1044.04 362.586H987.771V334.452H1044.04V362.586ZM1058.11 530.866C1053.94 530.866 1050.46 529.651 1047.69 527.219C1045.25 524.441 1044.04 520.967 1044.04 516.8V362.586H1072.17V530.866H1058.11ZM1156.57 516.8C1156.57 520.967 1155.18 524.441 1152.4 527.219C1149.97 529.651 1146.67 530.866 1142.51 530.866H1128.44V502.733H1156.57V516.8ZM1086.24 559C1082.07 559 1078.6 557.784 1075.82 555.353C1073.39 552.574 1072.17 549.101 1072.17 544.933V530.866H1128.44V544.933C1128.44 549.101 1127.05 552.574 1124.27 555.353C1121.84 557.784 1118.54 559 1114.37 559H1086.24Z" fill="black" style="fill:black;fill-opacity:1;"/>
<path d="M768.776 502.733C764.608 502.733 761.135 501.517 758.356 499.086C755.925 496.307 754.709 492.834 754.709 488.666V278.185H782.843V502.733H768.776ZM951.645 488.666C951.645 492.834 950.255 496.307 947.477 499.086C945.045 501.517 941.746 502.733 937.578 502.733H923.511V278.185H951.645V488.666ZM796.91 530.866C792.742 530.866 789.268 529.651 786.49 527.219C784.059 524.441 782.843 520.968 782.843 516.8V502.733H796.91C801.078 502.733 804.377 504.122 806.809 506.901C809.587 509.332 810.977 512.632 810.977 516.8V530.866H796.91ZM895.377 516.8C895.377 512.632 896.593 509.332 899.024 506.901C901.803 504.122 905.276 502.733 909.444 502.733H923.511V530.866H895.377V516.8ZM825.043 559C820.875 559 817.402 557.784 814.623 555.353C812.192 552.574 810.977 549.101 810.977 544.933V530.866H895.377V544.933C895.377 549.101 893.988 552.574 891.209 555.353C888.778 557.784 885.478 559 881.311 559H825.043ZM937.578 530.866C941.746 530.866 945.045 532.256 947.477 535.034C950.255 537.466 951.645 540.765 951.645 544.933V559H923.511V530.866H937.578Z" fill="black" style="fill:black;fill-opacity:1;"/>
<path d="M549.781 292.773C549.781 288.605 550.997 285.305 553.428 282.874C556.207 280.095 559.68 278.706 563.848 278.706H675.862C680.029 278.706 683.329 280.095 685.76 282.874C688.539 285.305 689.928 288.605 689.928 292.773V306.318H549.781V292.773ZM521.648 320.385C521.648 316.217 522.863 312.918 525.294 310.486C528.073 307.708 531.546 306.318 535.714 306.318H549.781V334.452H521.648V320.385ZM703.995 306.318C708.163 306.318 711.463 307.708 713.894 310.486C716.673 312.918 718.062 316.217 718.062 320.385V348.519C718.062 352.687 716.673 356.16 713.894 358.939C711.463 361.37 708.163 362.586 703.995 362.586H689.928V306.318H703.995ZM633.661 376.653C633.661 372.485 634.877 369.185 637.308 366.754C640.087 363.975 643.56 362.586 647.728 362.586H689.928V390.719H633.661V376.653ZM577.394 404.786C577.394 400.618 578.609 397.319 581.041 394.887C583.819 392.109 587.293 390.719 591.461 390.719H633.661V404.786C633.661 408.954 632.272 412.427 629.493 415.206C627.062 417.637 623.762 418.853 619.594 418.853H577.394V404.786ZM689.928 390.719H703.995C708.163 390.719 711.463 392.109 713.894 394.887C716.673 397.319 718.062 400.618 718.062 404.786V460.532C718.062 464.7 716.673 468.174 713.894 470.952C711.463 473.384 708.163 474.599 703.995 474.599H689.928V390.719ZM577.394 432.92C577.394 437.088 576.005 440.561 573.226 443.34C570.795 445.771 567.495 446.987 563.327 446.987H549.781V432.92C549.781 428.752 550.997 425.452 553.428 423.021C556.207 420.242 559.68 418.853 563.848 418.853H577.394V432.92ZM521.648 461.053C521.648 456.885 522.863 453.586 525.294 451.155C528.073 448.376 531.546 446.987 535.714 446.987H549.781V530.866H535.714C531.546 530.866 528.073 529.651 525.294 527.219C522.863 524.441 521.648 520.968 521.648 516.8V461.053ZM661.795 488.666C661.795 484.498 663.01 481.198 665.442 478.767C668.22 475.988 671.694 474.599 675.862 474.599H689.928V502.733H661.795V488.666ZM661.795 516.8C661.795 520.968 660.405 524.441 657.627 527.219C655.195 529.651 651.896 530.866 647.728 530.866H633.661V516.8C633.661 512.632 634.877 509.332 637.308 506.901C640.087 504.122 643.56 502.733 647.728 502.733H661.795V516.8ZM703.995 530.866C699.827 530.866 696.354 529.651 693.575 527.219C691.144 524.441 689.928 520.968 689.928 516.8V502.733H703.995C708.163 502.733 711.463 504.122 713.894 506.901C716.673 509.332 718.062 512.632 718.062 516.8V530.866H703.995ZM563.848 559C559.68 559 556.207 557.784 553.428 555.353C550.997 552.574 549.781 549.101 549.781 544.933V530.866H633.661V544.933C633.661 549.101 632.272 552.574 629.493 555.353C627.062 557.784 623.762 559 619.594 559H563.848ZM732.129 559C727.961 559 724.487 557.784 721.709 555.353C719.278 552.574 718.062 549.101 718.062 544.933V530.866H745.675V559H732.129Z" fill="black" style="fill:black;fill-opacity:1;"/>
<path d="M316.349 292.773C316.349 288.605 317.565 285.305 319.996 282.874C322.775 280.095 326.248 278.706 330.416 278.706H414.817C418.985 278.706 422.284 280.095 424.716 282.874C427.494 285.305 428.884 288.605 428.884 292.773V306.318H316.349V292.773ZM316.349 320.385C316.349 324.553 314.96 328.027 312.181 330.805C309.75 333.236 306.45 334.452 302.282 334.452H288.736V320.385C288.736 316.217 289.952 312.918 292.383 310.486C295.162 307.708 298.635 306.318 302.803 306.318H316.349V320.385ZM442.95 334.452C438.782 334.452 435.309 333.236 432.53 330.805C430.099 328.027 428.884 324.553 428.884 320.385V306.318H442.95C447.118 306.318 450.418 307.708 452.849 310.486C455.628 312.918 457.017 316.217 457.017 320.385V334.452H442.95ZM260.603 348.519C260.603 344.351 261.818 341.051 264.25 338.62C267.028 335.841 270.502 334.452 274.67 334.452H288.736V418.853H274.67C270.502 418.853 267.028 417.637 264.25 415.206C261.818 412.427 260.603 408.954 260.603 404.786V348.519ZM471.084 334.452C475.252 334.452 478.552 335.841 480.983 338.62C483.761 341.051 485.151 344.351 485.151 348.519V404.786C485.151 408.954 483.761 412.427 480.983 415.206C478.552 417.637 475.252 418.853 471.084 418.853H457.017V334.452H471.084ZM457.017 432.92C457.017 437.088 455.628 440.561 452.849 443.34C450.418 445.771 447.118 446.987 442.95 446.987H288.736V418.853H457.017V432.92ZM260.603 461.053C260.603 456.885 261.818 453.586 264.25 451.155C267.028 448.376 270.502 446.987 274.67 446.987H288.736V502.733H274.67C270.502 502.733 267.028 501.517 264.25 499.086C261.818 496.307 260.603 492.834 260.603 488.666V461.053ZM485.151 488.666C485.151 492.834 483.761 496.307 480.983 499.086C478.552 501.517 475.252 502.733 471.084 502.733H457.017V474.599H485.151V488.666ZM302.803 530.866C298.635 530.866 295.162 529.651 292.383 527.219C289.952 524.441 288.736 520.968 288.736 516.8V502.733H302.282C306.45 502.733 309.75 504.122 312.181 506.901C314.96 509.332 316.349 512.632 316.349 516.8V530.866H302.803ZM457.017 516.8C457.017 520.968 455.628 524.441 452.849 527.219C450.418 529.651 447.118 530.866 442.95 530.866H428.884V516.8C428.884 512.632 430.099 509.332 432.53 506.901C435.309 504.122 438.782 502.733 442.95 502.733H457.017V516.8ZM330.416 559C326.248 559 322.775 557.784 319.996 555.353C317.565 552.574 316.349 549.101 316.349 544.933V530.866H428.884V544.933C428.884 549.101 427.494 552.574 424.716 555.353C422.284 557.784 418.985 559 414.817 559H330.416Z" fill="black" style="fill:black;fill-opacity:1;"/>
<path d="M0.0667725 194.305H27.6794V334.452H14.1336C9.96564 334.452 6.49235 333.236 3.71372 330.805C1.28242 328.026 0.0667725 324.553 0.0667725 320.385V194.305ZM83.9466 306.318V292.773C83.9466 288.605 85.1623 285.305 87.5936 282.874C90.3722 280.095 93.8455 278.706 98.0135 278.706H154.281C158.449 278.706 161.748 280.095 164.18 282.874C166.958 285.305 168.348 288.605 168.348 292.773V306.318H83.9466ZM55.813 334.452V320.385C55.813 316.217 57.0287 312.918 59.46 310.486C62.2386 307.708 65.7119 306.318 69.8798 306.318H83.9466V320.385C83.9466 324.553 82.5573 328.026 79.7787 330.805C77.3474 333.236 74.0478 334.452 69.8798 334.452H55.813ZM168.348 306.318H182.414C186.582 306.318 189.882 307.708 192.313 310.486C195.092 312.918 196.481 316.217 196.481 320.385V334.452H182.414C178.246 334.452 174.773 333.236 171.994 330.805C169.563 328.026 168.348 324.553 168.348 320.385V306.318ZM27.6794 362.586V334.452H55.813V348.519C55.813 352.687 54.4237 356.16 51.6451 358.939C49.2138 361.37 45.9142 362.586 41.7462 362.586H27.6794ZM196.481 334.452H210.027C214.195 334.452 217.495 335.841 219.926 338.62C222.704 341.051 224.094 344.351 224.094 348.519V488.666C224.094 492.834 222.704 496.307 219.926 499.086C217.495 501.517 214.195 502.733 210.027 502.733H196.481V334.452ZM27.6794 362.586V502.733H14.1336C9.96564 502.733 6.49235 501.517 3.71372 499.086C1.28242 496.307 0.0667725 492.834 0.0667725 488.666V376.652C0.0667725 372.485 1.28242 369.185 3.71372 366.754C6.49235 363.975 9.96564 362.586 14.1336 362.586H27.6794ZM55.813 530.866H27.6794V502.733H41.7462C45.9142 502.733 49.2138 504.122 51.6451 506.901C54.4237 509.332 55.813 512.632 55.813 516.8V530.866ZM196.481 502.733V516.8C196.481 520.968 195.092 524.441 192.313 527.219C189.882 529.651 186.582 530.866 182.414 530.866H168.348V516.8C168.348 512.632 169.563 509.332 171.994 506.901C174.773 504.122 178.246 502.733 182.414 502.733H196.481ZM27.6794 530.866V559H0.0667725V544.933C0.0667725 540.765 1.28242 537.466 3.71372 535.034C6.49235 532.256 9.96564 530.866 14.1336 530.866H27.6794ZM55.813 530.866H168.348V544.933C168.348 549.101 166.958 552.574 164.18 555.353C161.748 557.784 158.449 559 154.281 559H69.8798C65.7119 559 62.2386 557.784 59.46 555.353C57.0287 552.574 55.813 549.101 55.813 544.933V530.866Z" fill="black" style="fill:black;fill-opacity:1;"/>
<path d="M1314.13 402.627C1314.13 402.094 1314.29 401.672 1314.6 401.361C1314.95 401.006 1315.4 400.828 1315.93 400.828H1326.73C1327.26 400.828 1327.68 401.006 1327.99 401.361C1328.35 401.672 1328.53 402.094 1328.53 402.627V404.36H1314.13V402.627ZM1314.13 406.16C1314.13 406.693 1313.95 407.137 1313.6 407.493C1313.29 407.804 1312.86 407.959 1312.33 407.959H1310.53V406.16C1310.53 405.627 1310.69 405.205 1311 404.894C1311.35 404.538 1311.8 404.36 1312.33 404.36H1314.13V406.16ZM1330.33 407.959C1329.79 407.959 1329.35 407.804 1328.99 407.493C1328.68 407.137 1328.53 406.693 1328.53 406.16V404.36H1330.33C1330.86 404.36 1331.28 404.538 1331.59 404.894C1331.95 405.205 1332.13 405.627 1332.13 406.16V407.959H1330.33ZM1308.8 411.559C1308.27 411.559 1307.82 411.403 1307.47 411.092C1307.15 410.737 1307 410.292 1307 409.759C1307 409.181 1307.15 408.737 1307.47 408.426C1307.82 408.115 1308.27 407.959 1308.8 407.959H1310.53V411.559H1308.8ZM1333.86 407.959C1334.39 407.959 1334.81 408.137 1335.13 408.493C1335.48 408.804 1335.66 409.226 1335.66 409.759V411.559H1332.13V407.959H1333.86ZM1312.33 415.158C1311.8 415.158 1311.35 415.002 1311 414.691C1310.69 414.336 1310.53 413.891 1310.53 413.358V411.559H1312.33C1312.86 411.559 1313.29 411.736 1313.6 412.092C1313.95 412.403 1314.13 412.825 1314.13 413.358V415.158H1312.33ZM1315.93 418.757C1315.4 418.757 1314.95 418.601 1314.6 418.29C1314.29 417.935 1314.13 417.49 1314.13 416.957V415.158H1319.53C1320.06 415.158 1320.48 415.335 1320.8 415.691C1321.15 416.002 1321.33 416.424 1321.33 416.957V418.757H1315.93ZM1323.13 422.356C1322.6 422.356 1322.15 422.2 1321.8 421.889C1321.48 421.534 1321.33 421.089 1321.33 420.556V418.757H1326.73C1327.26 418.757 1327.68 418.934 1327.99 419.29C1328.35 419.601 1328.53 420.023 1328.53 420.556V422.356H1323.13ZM1330.33 425.888C1329.79 425.888 1329.35 425.733 1328.99 425.422C1328.68 425.066 1328.53 424.622 1328.53 424.089V422.356H1330.33C1330.86 422.356 1331.28 422.534 1331.59 422.889C1331.95 423.2 1332.13 423.622 1332.13 424.155V425.888H1330.33ZM1308.8 429.487C1308.27 429.487 1307.82 429.332 1307.47 429.021C1307.15 428.665 1307 428.221 1307 427.688V425.888H1310.53V429.487H1308.8ZM1333.86 425.888C1334.39 425.888 1334.81 426.066 1335.13 426.421C1335.48 426.733 1335.66 427.155 1335.66 427.688C1335.66 428.265 1335.48 428.71 1335.13 429.021C1334.81 429.332 1334.39 429.487 1333.86 429.487H1332.13V425.888H1333.86ZM1312.33 433.086C1311.8 433.086 1311.35 432.931 1311 432.62C1310.69 432.264 1310.53 431.82 1310.53 431.287V429.487H1312.33C1312.86 429.487 1313.29 429.665 1313.6 430.021C1313.95 430.332 1314.13 430.754 1314.13 431.287V433.086H1312.33ZM1332.13 431.287C1332.13 431.82 1331.95 432.264 1331.59 432.62C1331.28 432.931 1330.86 433.086 1330.33 433.086H1328.53V431.287C1328.53 430.754 1328.68 430.332 1328.99 430.021C1329.35 429.665 1329.79 429.487 1330.33 429.487H1332.13V431.287ZM1315.93 436.686C1315.4 436.686 1314.95 436.53 1314.6 436.219C1314.29 435.864 1314.13 435.419 1314.13 434.886V433.086H1328.53V434.886C1328.53 435.419 1328.35 435.864 1327.99 436.219C1327.68 436.53 1327.26 436.686 1326.73 436.686H1315.93Z" fill="white" style="fill:white;fill-opacity:1;"/>
<path d="M1004.91 402.627C1004.91 402.094 1005.07 401.672 1005.38 401.361C1005.74 401.006 1006.18 400.828 1006.71 400.828H1017.38C1017.91 400.828 1018.33 401.006 1018.64 401.361C1019 401.672 1019.18 402.094 1019.18 402.627V404.36H1004.91V402.627ZM1004.91 406.16C1004.91 406.693 1004.74 407.137 1004.38 407.493C1004.07 407.804 1003.65 407.959 1003.11 407.959H1001.31V406.16C1001.31 405.627 1001.47 405.205 1001.78 404.894C1002.14 404.538 1002.58 404.36 1003.11 404.36H1004.91V406.16ZM1020.98 407.959C1020.44 407.959 1020 407.804 1019.64 407.493C1019.33 407.137 1019.18 406.693 1019.18 406.16V404.36H1020.98C1021.51 404.36 1021.93 404.538 1022.24 404.894C1022.6 405.205 1022.78 405.627 1022.78 406.16V407.959H1020.98ZM997.715 409.759C997.715 409.226 997.871 408.804 998.182 408.493C998.537 408.137 998.982 407.959 999.515 407.959H1001.31V429.487H999.515C998.982 429.487 998.537 429.332 998.182 429.021C997.871 428.665 997.715 428.221 997.715 427.688V409.759ZM1024.58 407.959C1025.11 407.959 1025.53 408.137 1025.84 408.493C1026.2 408.804 1026.37 409.226 1026.37 409.759V427.688C1026.37 428.221 1026.2 428.665 1025.84 429.021C1025.53 429.332 1025.11 429.487 1024.58 429.487H1022.78V407.959H1024.58ZM1003.11 433.086C1002.58 433.086 1002.14 432.931 1001.78 432.62C1001.47 432.264 1001.31 431.82 1001.31 431.287V429.487H1003.11C1003.65 429.487 1004.07 429.665 1004.38 430.021C1004.74 430.332 1004.91 430.754 1004.91 431.287V433.086H1003.11ZM1022.78 431.287C1022.78 431.82 1022.6 432.264 1022.24 432.62C1021.93 432.931 1021.51 433.086 1020.98 433.086H1019.18V431.287C1019.18 430.754 1019.33 430.332 1019.64 430.021C1020 429.665 1020.44 429.487 1020.98 429.487H1022.78V431.287ZM1006.71 436.686C1006.18 436.686 1005.74 436.53 1005.38 436.219C1005.07 435.864 1004.91 435.419 1004.91 434.886V433.086H1019.18V434.886C1019.18 435.419 1019 435.864 1018.64 436.219C1018.33 436.53 1017.91 436.686 1017.38 436.686H1006.71Z" fill="white" style="fill:white;fill-opacity:1;"/>
<path d="M695.611 402.627C695.611 402.094 695.766 401.672 696.077 401.361C696.433 401.006 696.877 400.828 697.41 400.828H711.74C712.273 400.828 712.695 401.006 713.006 401.361C713.362 401.672 713.54 402.094 713.54 402.627V404.36H695.611V402.627ZM692.012 406.16C692.012 405.627 692.167 405.205 692.478 404.894C692.834 404.538 693.278 404.36 693.811 404.36H695.611V407.959H692.012V406.16ZM715.339 404.36C715.872 404.36 716.294 404.538 716.606 404.894C716.961 405.205 717.139 405.627 717.139 406.16V409.759C717.139 410.292 716.961 410.737 716.606 411.092C716.294 411.403 715.872 411.559 715.339 411.559H713.54V404.36H715.339ZM706.341 413.358C706.341 412.825 706.497 412.403 706.808 412.092C707.163 411.736 707.608 411.559 708.141 411.559H713.54V415.158H706.341V413.358ZM699.143 416.957C699.143 416.424 699.299 416.002 699.61 415.691C699.965 415.335 700.41 415.158 700.943 415.158H706.341V416.957C706.341 417.49 706.164 417.935 705.808 418.29C705.497 418.601 705.075 418.757 704.542 418.757H699.143V416.957ZM713.54 415.158H715.339C715.872 415.158 716.294 415.335 716.606 415.691C716.961 416.002 717.139 416.424 717.139 416.957V424.089C717.139 424.622 716.961 425.066 716.606 425.422C716.294 425.733 715.872 425.888 715.339 425.888H713.54V415.158ZM699.143 420.556C699.143 421.089 698.965 421.534 698.61 421.889C698.299 422.2 697.877 422.356 697.344 422.356H695.611V420.556C695.611 420.023 695.766 419.601 696.077 419.29C696.433 418.934 696.877 418.757 697.41 418.757H699.143V420.556ZM692.012 424.155C692.012 423.622 692.167 423.2 692.478 422.889C692.834 422.534 693.278 422.356 693.811 422.356H695.611V433.086H693.811C693.278 433.086 692.834 432.931 692.478 432.62C692.167 432.264 692.012 431.82 692.012 431.287V424.155ZM709.94 427.688C709.94 427.155 710.096 426.733 710.407 426.421C710.763 426.066 711.207 425.888 711.74 425.888H713.54V429.487H709.94V427.688ZM709.94 431.287C709.94 431.82 709.763 432.264 709.407 432.62C709.096 432.931 708.674 433.086 708.141 433.086H706.341V431.287C706.341 430.754 706.497 430.332 706.808 430.021C707.163 429.665 707.608 429.487 708.141 429.487H709.94V431.287ZM715.339 433.086C714.806 433.086 714.362 432.931 714.006 432.62C713.695 432.264 713.54 431.82 713.54 431.287V429.487H715.339C715.872 429.487 716.294 429.665 716.606 430.021C716.961 430.332 717.139 430.754 717.139 431.287V433.086H715.339ZM697.41 436.686C696.877 436.686 696.433 436.53 696.077 436.219C695.766 435.864 695.611 435.419 695.611 434.886V433.086H706.341V434.886C706.341 435.419 706.164 435.864 705.808 436.219C705.497 436.53 705.075 436.686 704.542 436.686H697.41ZM718.938 436.686C718.405 436.686 717.961 436.53 717.605 436.219C717.294 435.864 717.139 435.419 717.139 434.886V433.086H720.671V436.686H718.938Z" fill="white" style="fill:white;fill-opacity:1;"/>
<path d="M382.663 390.031H386.262V407.959H384.462C383.929 407.959 383.485 407.804 383.13 407.493C382.818 407.137 382.663 406.693 382.663 406.16V390.031ZM393.46 404.36V402.561C393.46 402.028 393.616 401.605 393.927 401.294C394.282 400.939 394.727 400.761 395.26 400.761H402.391C402.925 400.761 403.347 400.939 403.658 401.294C404.013 401.605 404.191 402.028 404.191 402.561V404.36H393.46ZM389.861 407.959V406.16C389.861 405.627 390.017 405.205 390.328 404.893C390.683 404.538 391.128 404.36 391.661 404.36H393.46V406.16C393.46 406.693 393.283 407.137 392.927 407.493C392.616 407.804 392.194 407.959 391.661 407.959H389.861ZM404.191 404.36H405.99C406.524 404.36 406.946 404.538 407.257 404.893C407.612 405.205 407.79 405.627 407.79 406.16V407.959H405.99C405.457 407.959 405.013 407.804 404.657 407.493C404.346 407.137 404.191 406.693 404.191 406.16V404.36ZM386.262 411.558V407.959H389.861V409.759C389.861 410.292 389.683 410.736 389.328 411.092C389.017 411.403 388.595 411.558 388.062 411.558H386.262ZM407.79 407.959H409.59C410.123 407.959 410.545 408.137 410.856 408.493C411.211 408.804 411.389 409.226 411.389 409.759V436.686H407.79V407.959ZM386.262 411.558V436.686H382.663V413.358C382.663 412.825 382.818 412.403 383.13 412.092C383.485 411.736 383.929 411.558 384.462 411.558H386.262Z" fill="white" style="fill:white;fill-opacity:1;"/>
<path d="M76.9311 402.627C76.9311 402.094 77.0866 401.672 77.3977 401.361C77.7531 401.006 78.1975 400.828 78.7307 400.828H93.1271C93.6603 400.828 94.0824 401.006 94.3934 401.361C94.7489 401.672 94.9266 402.094 94.9266 402.627V404.36H76.9311V402.627ZM76.9311 409.759C76.9311 410.292 76.7534 410.737 76.3979 411.092C76.0869 411.403 75.6648 411.559 75.1316 411.559H73.3987V406.16C73.3987 405.627 73.5542 405.205 73.8652 404.894C74.2207 404.538 74.665 404.36 75.1982 404.36H76.9311V409.759ZM96.7262 407.959C96.193 407.959 95.7486 407.804 95.3932 407.493C95.0821 407.137 94.9266 406.693 94.9266 406.16V404.36H96.6595C97.1927 404.36 97.6148 404.538 97.9259 404.894C98.2813 405.205 98.4591 405.627 98.4591 406.16V407.959H96.7262ZM100.259 407.959C100.792 407.959 101.214 408.137 101.525 408.493C101.88 408.804 102.058 409.226 102.058 409.759V415.158H98.4591V407.959H100.259ZM69.7996 413.358C69.7996 412.825 69.9551 412.403 70.2661 412.092C70.6216 411.736 71.0659 411.559 71.5991 411.559H73.3987V425.888H71.5991C71.0659 425.888 70.6216 425.733 70.2661 425.422C69.9551 425.066 69.7996 424.622 69.7996 424.089V413.358ZM102.058 427.688C102.058 428.221 101.88 428.665 101.525 429.021C101.214 429.332 100.792 429.487 100.259 429.487H98.4591V422.356H102.058V427.688ZM75.1316 425.888C75.6648 425.888 76.0869 426.066 76.3979 426.421C76.7534 426.733 76.9311 427.155 76.9311 427.688V433.086H75.1982C74.665 433.086 74.2207 432.931 73.8652 432.62C73.5542 432.264 73.3987 431.82 73.3987 431.287V425.888H75.1316ZM98.4591 431.287C98.4591 431.82 98.2813 432.264 97.9259 432.62C97.6148 432.931 97.1927 433.086 96.6595 433.086H94.9266V431.287C94.9266 430.754 95.0821 430.332 95.3932 430.021C95.7486 429.665 96.193 429.487 96.7262 429.487H98.4591V431.287ZM78.7307 436.686C78.1975 436.686 77.7531 436.53 77.3977 436.219C77.0866 435.864 76.9311 435.419 76.9311 434.886V433.086H94.9266V434.886C94.9266 435.419 94.7489 435.864 94.3934 436.219C94.0824 436.53 93.6603 436.686 93.1271 436.686H78.7307Z" fill="white" style="fill:white;fill-opacity:1;"/>
</svg>
