<svg preserveAspectRatio="none" width="100%" height="100%" overflow="visible" style="display: block;" viewBox="0 0 77.5562 75.492" fill="none" xmlns="http://www.w3.org/2000/svg">
<g id="after-effects-1 logo">
<g clip-path="url(#clip0_39_102)">
<path id="Vector" d="M13.734 0.00827302H63.8223C71.4163 0.00827302 77.5562 6.13681 77.5562 13.7167V61.7764C77.5562 69.3563 71.4163 75.4848 63.8223 75.4848H13.734C6.13997 75.4848 9.91525e-07 69.3563 9.91525e-07 61.7764V13.7167C9.91525e-07 6.13681 6.13997 0.00827302 13.734 0.00827302Z" fill="var(--fill-0, #00005B)" style="fill:#00005B;fill:color(display-p3 0.0000 0.0000 0.3569);fill-opacity:1;"/>
<g id="Group">
<path id="Vector_2" d="M31.1519 45.1643H19.1307L16.6746 52.7764C16.6101 53.0665 16.3514 53.26 16.0607 53.2278H9.98555C9.63003 53.2278 9.53324 53.0343 9.63003 52.6472L20.0356 22.8759C20.1324 22.5532 20.2295 22.2631 20.3589 21.876C20.4882 21.1989 20.5527 20.4891 20.5527 19.7794C20.5205 19.6181 20.6495 19.4568 20.8112 19.4246H29.1807C29.4069 19.4246 29.5685 19.5212 29.6008 19.6825L41.3958 52.5825C41.4929 52.9374 41.3958 53.0987 41.0726 53.0987H34.3187C34.0925 53.1309 33.8664 52.9696 33.8015 52.7439L31.1516 45.0027V45.164L31.1519 45.1643ZM21.0051 38.7456H29.213C29.0191 38.0684 28.7607 37.2618 28.4697 36.4233C28.1787 35.5525 27.888 34.6171 27.5973 33.6495C27.2741 32.6496 26.9834 31.682 26.6601 30.6821C26.3369 29.6823 26.0462 28.7468 25.7878 27.8114C25.5294 26.9081 25.3032 26.0696 25.0768 25.2955H25.0122C24.7212 26.6824 24.366 28.0693 23.9134 29.4565C23.4288 31.0048 22.944 32.6174 22.4268 34.2304C22.0068 35.8752 21.4896 37.3912 21.0051 38.7459V38.7456ZM60.4294 42.2614H50.1854C50.3148 43.2612 50.6377 44.2611 51.1871 45.1321C51.7688 46.0028 52.5766 46.6803 53.5461 47.0674C54.8388 47.6158 56.2606 47.9059 57.6823 47.8737C58.8134 47.8415 59.9445 47.7446 61.043 47.5189C62.0447 47.3897 63.0142 47.1318 63.9191 46.777C64.0807 46.6478 64.1775 46.7125 64.1775 47.0349V51.97C64.1775 52.0992 64.1452 52.228 64.113 52.3571C64.0485 52.454 63.9836 52.5184 63.8868 52.5828C62.8529 53.0343 61.7863 53.357 60.6552 53.5505C59.1364 53.8406 57.6175 53.9698 56.0664 53.9375C53.6103 53.9375 51.5424 53.5505 49.8619 52.8086C48.2785 52.1311 46.889 51.0668 45.7902 49.7443C44.7562 48.4865 44.0129 47.0671 43.5606 45.5189C43.1083 44.0028 42.8818 42.4224 42.8818 40.8097C42.8818 39.068 43.1402 37.3584 43.6896 35.6811C44.2068 34.0684 45.0146 32.5846 46.1131 31.2621C47.1797 29.9718 48.5043 28.9397 50.0232 28.1978C51.542 27.4559 53.3516 27.198 55.4199 27.198C57.1326 27.1658 58.8454 27.4884 60.4288 28.1978C61.7537 28.7784 62.9171 29.6494 63.822 30.7781C64.6621 31.8749 65.3409 33.1005 65.7609 34.4552C66.1809 35.7455 66.3748 37.0677 66.3748 38.3902C66.3748 39.1643 66.3426 39.8418 66.3103 40.4546C66.2458 41.0674 66.2132 41.5191 66.1809 41.8093C66.1487 42.035 65.9548 42.2285 65.7286 42.2285C65.5347 42.2285 65.1792 42.2607 64.6621 42.2929C64.1449 42.3574 63.531 42.3899 62.7877 42.3899C62.0444 42.3899 61.2688 42.2607 60.4288 42.2607L60.4294 42.2614ZM50.1854 37.5523H57.0039C57.844 37.5523 58.4582 37.5522 58.8457 37.52C59.1041 37.4878 59.3628 37.4231 59.589 37.2621V36.9395C59.589 36.5202 59.5244 36.1331 59.3951 35.7461C58.8134 33.9399 57.1007 32.714 55.194 32.7787C53.4167 32.6818 51.7362 33.6173 50.8962 35.2302C50.5084 35.9721 50.2822 36.7462 50.1851 37.5526L50.1854 37.5523Z" fill="var(--fill-0, #9999FF)" style="fill:#9999FF;fill:color(display-p3 0.6000 0.6000 1.0000);fill-opacity:1;"/>
</g>
</g>
</g>
<defs>
<clipPath id="clip0_39_102">
<rect width="77.5562" height="75.492" rx="14.4286" fill="white" style="fill:white;fill-opacity:1;"/>
</clipPath>
</defs>
</svg>
