<svg viewBox="0 0 78.146 75.492" fill="none" xmlns="http://www.w3.org/2000/svg">
<path d="M64.317 0H13.8291C6.19148 0 0 6.20273 0 13.8542V61.6378C0 69.2893 6.19148 75.492 13.8291 75.492H64.317C71.9545 75.492 78.146 69.2893 78.146 61.6378V13.8542C78.146 6.20273 71.9545 0 64.317 0Z" fill="#EB1000"/>
<g transform="translate(21, 17)">
<path d="M7.173 40.559C7.173 40.867 7.033 41.007 6.726 41.007H0.349C0.098 41.007 0 40.825 0 40.559V7.525C0 7.231 0.098 7.119 0.391 7.119H20.834C21.183 7.119 21.267 7.217 21.323 7.553L21.895 13.131C21.951 13.438 21.797 13.578 21.462 13.578H7.173V21.435H20.053C20.346 21.435 20.486 21.533 20.486 21.84V27.488C20.486 27.796 20.332 27.894 20.081 27.894H7.173V40.559Z" fill="white"/>
<path d="M25.719 15.731C25.719 15.437 25.858 15.298 26.151 15.298H32.501C32.836 15.298 32.933 15.381 32.933 15.717V40.518C32.933 40.853 32.836 40.993 32.459 40.993H26.235C25.886 40.993 25.719 40.839 25.719 40.504V15.717V15.731Z" fill="white"/>
<path d="M30.882 9.705L34.036 10.418C35.277 10.698 36.143 9.216 35.277 8.279L33.087 5.903C32.794 5.595 32.682 5.162 32.78 4.743L33.491 1.583C33.77 0.339 32.277 -0.514 31.342 0.353L28.97 2.548C28.663 2.841 28.216 2.953 27.812 2.855L24.658 2.142C23.416 1.863 22.551 3.345 23.416 4.281L25.607 6.658C25.9 6.965 26.012 7.399 25.914 7.818L25.202 10.978C24.923 12.222 26.416 13.075 27.351 12.208L29.724 10.013C30.031 9.719 30.477 9.608 30.882 9.705Z" fill="white"/>
</g>
</svg>
