<svg viewBox="0 0 75.492 75.492" fill="none" xmlns="http://www.w3.org/2000/svg">
<path d="M57.7986 0H17.6934C7.92162 0 0 7.92162 0 17.6934V57.7986C0 67.5704 7.92162 75.492 17.6934 75.492H57.7986C67.5704 75.492 75.492 67.5704 75.492 57.7986V17.6934C75.492 7.92162 67.5704 0 57.7986 0Z" fill="#242938"/>
<g transform="translate(18, 8.25)">
<path d="M9.83 58.978C15.256 58.978 19.66 54.575 19.66 49.149V39.319H9.83C4.404 39.319 0 43.723 0 49.149C0 54.575 4.404 58.978 9.83 58.978Z" fill="#0ACF83"/>
<path d="M0 29.489C0 24.063 4.404 19.66 9.83 19.66H19.66V39.319H9.83C4.404 39.319 0 34.915 0 29.489Z" fill="#A259FF"/>
<path d="M0 9.83C0 4.404 4.404 0 9.83 0H19.66V19.66H9.83C4.404 19.66 0 15.256 0 9.83Z" fill="#F24E1E"/>
<path d="M19.66 0H29.489C34.915 0 39.319 4.404 39.319 9.83C39.319 15.256 34.915 19.66 29.489 19.66H19.66V0Z" fill="#FF7262"/>
<path d="M39.319 29.489C39.319 34.915 34.915 39.319 29.489 39.319C24.063 39.319 19.66 34.915 19.66 29.489C19.66 24.063 24.063 19.66 29.489 19.66C34.915 19.66 39.319 24.063 39.319 29.489Z" fill="#1ABCFE"/>
</g>
</svg>
