<svg preserveAspectRatio="none" width="100%" height="100%" overflow="visible" style="display: block;" viewBox="0 0 75.492 75.492" fill="none" xmlns="http://www.w3.org/2000/svg">
<g id="Illustrator logo">
<g clip-path="url(#clip0_39_122)">
<path id="Vector" d="M57.7986 0H17.6934C7.92162 0 0 7.92162 0 17.6934V57.7986C0 67.5704 7.92162 75.492 17.6934 75.492H57.7986C67.5704 75.492 75.492 67.5704 75.492 57.7986V17.6934C75.492 7.92162 67.5704 0 57.7986 0Z" fill="var(--fill-0, #330000)" style="fill:#330000;fill:color(display-p3 0.2000 0.0000 0.0000);fill-opacity:1;"/>
<path id="Vector_2" d="M36.4877 44.9215H24.7865L22.3959 52.3135C22.333 52.5966 22.0814 52.7853 21.7983 52.7538H15.8847C15.5387 52.7538 15.4444 52.565 15.5387 52.1876L25.6672 23.0289C25.7616 22.7144 25.856 22.3684 25.9818 21.9909C26.1076 21.3304 26.1705 20.6383 26.1705 19.9463C26.1391 19.789 26.2649 19.6318 26.4222 19.6003H26.5165H34.5689C34.8207 19.6003 34.9464 19.6947 34.9779 19.8519L46.4589 52.2507C46.5533 52.5966 46.4589 52.7538 46.1445 52.7538H39.5702C39.3503 52.7853 39.13 52.6281 39.0672 52.4078L36.4877 44.9215ZM26.6109 38.5362H34.6004C34.4117 37.8756 34.1602 37.0892 33.8771 36.2714C33.594 35.4221 33.3109 34.51 33.0278 33.5664C32.7131 32.5912 32.4301 31.6475 32.1154 30.6723C31.801 29.6974 31.518 28.7852 31.2661 27.873C31.0146 26.9923 30.7943 26.1744 30.5743 25.4195H30.5112C30.2281 26.7721 29.8822 28.1246 29.4418 29.4772C28.97 30.987 28.4982 32.5596 27.9949 34.1326C27.5545 35.7368 27.0827 37.2151 26.6109 38.5362Z" fill="var(--fill-0, #FF9A00)" style="fill:#FF9A00;fill:color(display-p3 1.0000 0.6039 0.0000);fill-opacity:1;"/>
<path id="Vector_3" d="M53.4734 25.105C52.4354 25.1365 51.429 24.7276 50.674 24.0041C49.9507 23.2177 49.5732 22.1797 49.6045 21.1103C49.5732 20.0408 49.9819 19.0342 50.7369 18.3108C51.4918 17.5873 52.4985 17.2098 53.5366 17.2098C54.7633 17.2098 55.7069 17.5873 56.3988 18.3108C57.0909 19.0657 57.4683 20.0723 57.4368 21.1103C57.4683 22.1797 57.0909 23.2177 56.3359 24.0041C55.6126 24.759 54.543 25.168 53.4734 25.105ZM49.9507 52.408V28.1876C49.9507 27.8731 50.0763 27.7473 50.3594 27.7473H56.5875C56.8706 27.7473 56.9965 27.9046 56.9965 28.1876V52.408C56.9965 52.7539 56.8706 52.9113 56.5875 52.9113H50.4225C50.1079 52.9113 49.9507 52.7226 49.9507 52.408Z" fill="var(--fill-0, #FF9A00)" style="fill:#FF9A00;fill:color(display-p3 1.0000 0.6039 0.0000);fill-opacity:1;"/>
</g>
</g>
<defs>
<clipPath id="clip0_39_122">
<rect width="75.492" height="75.492" rx="14.4286" fill="white" style="fill:white;fill-opacity:1;"/>
</clipPath>
</defs>
</svg>
