<svg preserveAspectRatio="none" width="100%" height="100%" overflow="visible" style="display: block;" viewBox="0 0 75.492 75.492" fill="none" xmlns="http://www.w3.org/2000/svg">
<g id="Premiere logo">
<g clip-path="url(#clip0_39_117)">
<path id="Vector" d="M57.7986 0H17.6934C7.92162 0 0 7.92162 0 17.6934V57.7986C0 67.5704 7.92162 75.492 17.6934 75.492H57.7986C67.5704 75.492 75.492 67.5704 75.492 57.7986V17.6934C75.492 7.92162 67.5704 0 57.7986 0Z" fill="var(--fill-0, #00005B)" style="fill:#00005B;fill:color(display-p3 0.0000 0.0000 0.3569);fill-opacity:1;"/>
<path id="Vector_2" d="M15.9241 53.8709V21.4722C15.9241 21.252 16.0184 21.1262 16.2386 21.1262C16.7733 21.1262 17.2766 21.1262 18.0001 21.0947C18.755 21.0633 19.5414 21.0633 20.3907 21.0318C21.24 21.0004 22.1521 21.0004 23.1273 20.9689C24.1023 20.9375 25.046 20.9375 25.9896 20.9375C28.569 20.9375 30.7078 21.252 32.4695 21.9126C34.0421 22.4473 35.4892 23.3281 36.6844 24.4919C37.6908 25.4985 38.4773 26.7252 38.9807 28.0777C39.4525 29.3989 39.704 30.7514 39.704 32.1669C39.704 34.8719 39.075 37.1054 37.8167 38.8668C36.5584 40.6282 34.7971 41.9493 32.7526 42.7042C30.6134 43.4907 28.2544 43.7738 25.6751 43.7738C24.9202 43.7738 24.4169 43.7738 24.1023 43.7422C23.7878 43.711 23.3474 43.711 22.7498 43.711V53.808C22.7812 54.028 22.624 54.2168 22.4038 54.2483H22.278H16.3015C16.0499 54.2483 15.9241 54.1224 15.9241 53.8393V53.8709ZM22.7812 27.2285V37.7973C23.2216 37.8288 23.6305 37.8604 24.008 37.8604H25.6751C26.9019 37.8604 28.1286 37.6716 29.2924 37.2942C30.2991 37.0111 31.1796 36.4133 31.8717 35.6269C32.5323 34.8407 32.8469 33.7711 32.8469 32.3872C32.8782 31.412 32.6267 30.4368 32.1233 29.5875C31.5886 28.7698 30.8337 28.1407 29.9216 27.7946C28.7577 27.3228 27.4995 27.1341 26.2098 27.1656C25.392 27.1656 24.6685 27.1656 24.0709 27.197C23.4418 27.1656 23.0014 27.197 22.7812 27.2285Z" fill="var(--fill-0, #9999FF)" style="fill:#9999FF;fill:color(display-p3 0.6000 0.6000 1.0000);fill-opacity:1;"/>
<path id="Vector_3" d="M44.2337 29.0841H49.7384C50.053 29.0841 50.3046 29.3043 50.3989 29.5873C50.4933 29.8392 50.5561 30.0907 50.5877 30.3738C50.6505 30.6884 50.7136 31.0343 50.7449 31.349C50.7764 31.6949 50.808 32.0724 50.808 32.4814C51.7516 31.3803 52.884 30.4682 54.1735 29.776C55.6206 28.9583 57.2876 28.5494 58.9546 28.5494C59.1749 28.518 59.3636 28.6752 59.3952 28.8954V29.0212V35.1549C59.3952 35.4067 59.2377 35.5011 58.8918 35.5011C57.7594 35.4695 56.5955 35.5639 55.4947 35.8154C54.5826 36.0041 53.7017 36.2872 52.8524 36.6647C52.2547 36.9478 51.6885 37.3252 51.2482 37.8286V53.8707C51.2482 54.1853 51.1223 54.311 50.8392 54.311H44.6427C44.3911 54.3425 44.1709 54.1853 44.1393 53.9335V53.8079V36.3816C44.1393 35.6267 44.1393 34.8405 44.108 34.0225C44.0765 33.2047 44.0765 32.387 44.0449 31.569C44.0449 30.8456 43.9821 30.1535 43.9193 29.4301C43.8878 29.2729 43.9821 29.1156 44.1393 29.0841C44.1393 29.0527 44.2024 29.0527 44.2337 29.0841Z" fill="var(--fill-0, #9999FF)" style="fill:#9999FF;fill:color(display-p3 0.6000 0.6000 1.0000);fill-opacity:1;"/>
</g>
</g>
<defs>
<clipPath id="clip0_39_117">
<rect width="75.492" height="75.492" rx="14.4286" fill="white" style="fill:white;fill-opacity:1;"/>
</clipPath>
</defs>
</svg>
