<svg preserveAspectRatio="none" width="100%" height="100%" overflow="visible" style="display: block;" viewBox="0 0 75.492 75.492" fill="none" xmlns="http://www.w3.org/2000/svg">
<g id="Photoshop logo">
<g clip-path="url(#clip0_39_141)">
<path id="Vector" d="M57.7986 0H17.6934C7.92162 0 0 7.92162 0 17.6934V57.7986C0 67.5704 7.92162 75.492 17.6934 75.492H57.7986C67.5704 75.492 75.492 67.5704 75.492 57.7986V17.6934C75.492 7.92162 67.5704 0 57.7986 0Z" fill="var(--fill-0, #001E36)" style="fill:#001E36;fill:color(display-p3 0.0000 0.1176 0.2118);fill-opacity:1;"/>
<path id="Vector_2" d="M16.9859 52.5023V20.135C16.9859 19.9148 17.0802 19.789 17.3004 19.789C17.8351 19.789 18.3384 19.789 19.0619 19.7576C19.8168 19.7261 20.6032 19.7261 21.4525 19.6947C22.3018 19.6632 23.2139 19.6632 24.1891 19.6318C25.1641 19.6003 26.1078 19.6003 27.0514 19.6003C29.6307 19.6003 31.7696 19.9148 33.5313 20.5754C35.1039 21.1102 36.5509 21.9909 37.7461 23.1547C38.7526 24.1613 39.5391 25.388 40.0424 26.7406C40.5143 28.0617 40.7658 29.4143 40.7658 30.8299C40.7658 33.5349 40.1368 35.7681 38.8785 37.5298C37.6202 39.2912 35.8588 40.6123 33.8143 41.3672C31.6752 42.1537 29.3162 42.4368 26.7369 42.4368C25.982 42.4368 25.4787 42.4368 25.1641 42.4052C24.8496 42.3737 24.4092 42.3737 23.8116 42.3737V52.4707C23.843 52.691 23.6858 52.8797 23.4656 52.9113C23.4341 52.9113 23.4027 52.9113 23.3398 52.9113H17.3633C17.1117 52.9113 16.9859 52.7854 16.9859 52.5023ZM23.843 25.8598V36.4287C24.2834 36.4602 24.6923 36.4918 25.0698 36.4918H26.7369C27.9637 36.4918 29.1904 36.303 30.3541 35.9256C31.3609 35.6425 32.2414 35.0447 32.9335 34.2583C33.5941 33.4721 33.9087 32.4025 33.9087 31.0186C33.94 30.0434 33.6884 29.0683 33.1851 28.219C32.6504 27.4011 31.8955 26.7721 30.9834 26.426C29.8195 25.9542 28.5613 25.7655 27.2716 25.7969C26.4538 25.7969 25.7303 25.7969 25.1327 25.8284C24.5036 25.7969 24.0632 25.8284 23.843 25.8598Z" fill="var(--fill-0, #31A8FF)" style="fill:#31A8FF;fill:color(display-p3 0.1922 0.6588 1.0000);fill-opacity:1;"/>
<path id="Vector_3" d="M60.3938 34.5101C59.4502 34.0067 58.4437 33.6608 57.3742 33.4405C56.2102 33.189 55.0466 33.0315 53.8511 33.0315C53.2221 33.0002 52.5615 33.0946 51.9638 33.2518C51.5551 33.3461 51.2089 33.5664 50.9889 33.8808C50.8314 34.1326 50.7371 34.447 50.7371 34.7301C50.7371 35.0132 50.863 35.2962 51.0517 35.5481C51.3348 35.894 51.7123 36.1771 52.1213 36.3974C52.8446 36.7748 53.5996 37.1207 54.3545 37.4354C56.0531 38.0016 57.6888 38.7878 59.1987 39.7314C60.2367 40.392 61.086 41.2728 61.6834 42.3424C62.1868 43.3488 62.4383 44.4497 62.4071 45.582C62.4383 47.0606 61.998 48.5389 61.1803 49.7656C60.2995 51.0239 59.0727 51.9989 57.6573 52.565C56.1159 53.2256 54.2286 53.5718 51.9638 53.5718C50.5171 53.5718 49.1016 53.4459 47.6861 53.1628C46.585 52.9741 45.4842 52.6282 44.4777 52.1563C44.2574 52.0304 44.1003 51.8101 44.1315 51.5586V46.0854C44.1315 45.991 44.1631 45.8651 44.2574 45.8023C44.3518 45.7395 44.4462 45.7708 44.5405 45.8339C45.7673 46.5572 47.0568 47.0606 48.441 47.375C49.6362 47.6896 50.8945 47.8468 52.1525 47.8468C53.348 47.8468 54.1973 47.6896 54.7635 47.4065C55.2666 47.1862 55.6128 46.6516 55.6128 46.0854C55.6128 45.6451 55.3609 45.2361 54.8579 44.8271C54.3545 44.4184 53.3165 43.9466 51.7751 43.3488C50.1709 42.7826 48.6926 42.0277 47.3087 41.0841C46.3335 40.392 45.5157 39.4799 44.918 38.4103C44.4146 37.4038 44.1631 36.303 44.1946 35.2019C44.1946 33.8495 44.5721 32.5597 45.2639 31.396C46.0504 30.1377 47.2143 29.1311 48.5667 28.502C50.0452 27.7471 51.901 27.4011 54.1342 27.4011C55.4241 27.4011 56.7452 27.4955 58.0347 27.6842C58.9784 27.81 59.8905 28.0617 60.7398 28.4077C60.8657 28.4391 60.9916 28.565 61.0544 28.6908C61.086 28.8166 61.1172 28.9424 61.1172 29.0682V34.1954C61.1172 34.3213 61.0544 34.447 60.96 34.5101C60.6769 34.5729 60.5198 34.5729 60.3938 34.5101Z" fill="var(--fill-0, #31A8FF)" style="fill:#31A8FF;fill:color(display-p3 0.1922 0.6588 1.0000);fill-opacity:1;"/>
</g>
</g>
<defs>
<clipPath id="clip0_39_141">
<rect width="75.492" height="75.492" rx="14.4286" fill="white" style="fill:white;fill-opacity:1;"/>
</clipPath>
</defs>
</svg>
